<svg xmlns="http://www.w3.org/2000/svg" xmlns:xlink="http://www.w3.org/1999/xlink" width="720" zoomAndPan="magnify" viewBox="0 0 540 540.000001" height="720" preserveAspectRatio="xMidYMid meet" version="1.0"><defs><clipPath id="ad6f6925e3"><path d="M 26.316406 0 L 513 0 L 513 539 L 26.316406 539 Z M 26.316406 0 " clip-rule="nonzero"/></clipPath></defs><g clip-path="url(#ad6f6925e3)"><path fill="#1a56db" d="M 325.597656 327.628906 L 329.203125 327.59375 C 356.96875 327.289062 387.691406 350.367188 388.140625 373.5625 C 388.582031 396.488281 359.011719 419.53125 341.777344 419.710938 C 341.777344 419.710938 305.820312 420.234375 296.875 420.671875 C 295.023438 420.765625 293.179688 420.832031 291.339844 420.847656 L 190.742188 421.949219 C 176.414062 422.097656 164.628906 433.367188 164.1875 447.222656 C 163.730469 461.511719 175.984375 473.085938 190.703125 472.933594 L 257.671875 472.242188 C 261.800781 472.195312 265.105469 475.40625 265.070312 479.414062 C 265.070312 479.476562 265.070312 479.539062 265.066406 479.601562 C 265.035156 483.941406 261.367188 487.496094 256.902344 487.542969 L 226.457031 487.855469 C 212.128906 488.007812 200.339844 499.269531 199.898438 513.128906 C 199.441406 527.417969 211.695312 538.992188 226.417969 538.839844 L 356.417969 537.5 C 358.4375 537.480469 360.402344 537.230469 362.292969 536.792969 C 405.152344 533.449219 441.609375 517.335938 468.378906 489.742188 C 496.9375 460.296875 512.34375 420.082031 512.914062 373.460938 L 512.925781 372.667969 C 513.507812 325.949219 498.996094 285.675781 470.953125 256.207031 C 441.507812 225.257812 399.78125 209.167969 350.285156 209.679688 L 328.773438 209.898438 C 326.9375 209.917969 325.117188 210.027344 323.316406 210.199219 L 206.246094 211.277344 C 200.972656 211.144531 197.308594 211.058594 197.308594 211.058594 C 180.078125 210.726562 150.714844 187.417969 151.363281 164.496094 C 152.019531 141.300781 182.949219 118.503906 210.710938 119.058594 L 234.660156 119.523438 C 235.605469 119.539062 236.546875 119.535156 237.480469 119.503906 C 239.6875 119.449219 241.894531 119.398438 244.117188 119.441406 L 317.179688 120.769531 L 342.777344 121.261719 L 378.484375 121.953125 C 393.195312 122.234375 405.558594 110.78125 405.226562 96.484375 C 404.914062 82.628906 393.226562 71.246094 378.898438 70.976562 L 342.601562 70.273438 L 330.347656 70.035156 C 326.183594 69.953125 322.800781 66.609375 322.789062 62.566406 L 322.789062 62.363281 C 322.777344 58.070312 326.351562 54.664062 330.777344 54.746094 L 355.914062 55.234375 C 370.628906 55.519531 382.988281 44.058594 382.664062 29.765625 C 382.347656 15.90625 370.664062 4.53125 356.332031 4.253906 L 217.65625 1.726562 C 215.855469 1.539062 214.039062 1.410156 212.199219 1.375 L 190.691406 0.957031 C 141.203125 0 99.332031 15.710938 69.609375 46.394531 C 41.304688 75.609375 26.425781 115.753906 26.585938 162.472656 L 26.585938 163.265625 C 26.746094 209.890625 41.785156 250.238281 70.078125 279.941406 C 89.640625 300.480469 114.542969 314.789062 143.445312 322.390625 M 124.136719 422.636719 L 104.417969 422.835938 C 89.917969 422.988281 78.023438 434.527344 77.847656 448.601562 C 77.671875 462.683594 89.28125 473.976562 103.785156 473.824219 L 123.503906 473.625 C 138.003906 473.472656 149.898438 461.933594 150.074219 447.859375 C 150.246094 433.777344 138.636719 422.484375 124.136719 422.636719 Z M 393.265625 30.460938 C 393.222656 16.378906 404.9375 5.191406 419.429688 5.476562 L 439.152344 5.851562 C 453.644531 6.128906 465.4375 17.777344 465.484375 31.855469 C 465.53125 45.9375 453.816406 57.125 439.316406 56.847656 L 419.605469 56.464844 C 405.109375 56.1875 393.320312 44.542969 393.265625 30.460938 " fill-opacity="1" fill-rule="nonzero"/></g></svg>